<svg xmlns:dc="http://purl.org/dc/elements/1.1/" xmlns:cc="http://creativecommons.org/ns#" xmlns:rdf="http://www.w3.org/1999/02/22-rdf-syntax-ns#" xmlns:svg="http://www.w3.org/2000/svg" xmlns="http://www.w3.org/2000/svg" xmlns:sodipodi="http://sodipodi.sourceforge.net/DTD/sodipodi-0.dtd" xmlns:inkscape="http://www.inkscape.org/namespaces/inkscape" version="1.1" x="0px" y="0px" viewBox="0 0 100 100"><g transform="translate(0,-952.36218)"><path style="font-size:medium;font-style:normal;font-variant:normal;font-weight:normal;font-stretch:normal;text-indent:0;text-align:start;text-decoration:none;line-height:normal;letter-spacing:normal;word-spacing:normal;text-transform:none;direction:ltr;block-progression:tb;writing-mode:lr-tb;text-anchor:start;baseline-shift:baseline;opacity:1;color:#000000;fill:#000000;fill-opacity:1;stroke:none;stroke-width:6;marker:none;visibility:visible;display:inline;overflow:visible;enable-background:accumulate;font-family:Sans;-inkscape-font-specification:Sans" d="M 14,5 C 9.619893,5 6,8.61989 6,13 l 0,44 c 0,4.3801 3.619893,8 8,8 l 22.75,0 -4.34375,7.46875 c -0.538596,0.907741 -0.547948,2.105438 -0.02359,3.021479 C 32.907011,76.40627 33.944511,77.004735 35,77 l 30,0 c 1.055489,0.0047 2.092989,-0.59373 2.617343,-1.509771 0.524355,-0.916041 0.515003,-2.113738 -0.02359,-3.021479 L 63.25,65 86,65 c 4.380107,0 8,-3.6199 8,-8 L 94,13 C 94,8.61989 90.380107,5 86,5 z m 0,6 72,0 c 1.15989,0 2,0.84011 2,2 l 0,44 c 0,1.1599 -0.84011,2 -2,2 l -72,0 c -1.15989,0 -2,-0.8401 -2,-2 l 0,-44 c 0,-1.15989 0.84011,-2 2,-2 z m 40.875,7.9375 c -1.176174,0.05138 -2.283849,0.862816 -2.6875,1.96875 l -10,26 c -0.564505,1.472622 0.261754,3.326119 1.734375,3.890624 1.472622,0.564505 3.32612,-0.261752 3.890625,-1.734374 l 10,-26 C 58.190495,22.131667 58.059374,21.011628 57.476604,20.19327 56.893834,19.374913 55.878266,18.884707 54.875,18.9375 z M 36,23.96875 c -0.466491,0.008 -0.930714,0.126773 -1.34375,0.34375 l -16,8 c -0.978371,0.499782 -1.635425,1.573243 -1.635425,2.671875 0,1.098632 0.657054,2.172093 1.635425,2.671875 l 16,8 c 1.41094,0.856915 3.496162,0.258409 4.237858,-1.216359 0.741696,-1.474768 -0.02115,-3.505636 -1.550358,-4.127391 L 26.6875,35 37.34375,29.65625 c 1.201988,-0.596885 1.894068,-2.071011 1.58549,-3.377084 C 38.620663,24.973094 37.342024,23.964577 36,23.96875 z m 27.90625,0 c -1.326696,0.03635 -2.563289,1.058882 -2.848181,2.355139 -0.284891,1.296256 0.40899,2.743066 1.598181,3.332361 L 73.3125,35 62.65625,40.3125 c -1.529207,0.621755 -2.292054,2.652623 -1.550358,4.127391 0.741696,1.474768 2.826918,2.073274 4.237858,1.216359 l 16,-8 c 0.978371,-0.499782 1.635425,-1.573243 1.635425,-2.671875 0,-1.098632 -0.657054,-2.172093 -1.635425,-2.671875 l -16,-8 c -0.440716,-0.23146 -0.939751,-0.350795 -1.4375,-0.34375 z M 43.71875,65 l 12.5625,0 3.5,6 -19.5625,0 z m -26.40625,15.65625 -5,10 c -0.456028,0.910631 -0.404575,2.055971 0.131268,2.922044 C 12.979612,94.444366 13.981566,95.001626 15,95 l 70,0 c 1.018434,0.0016 2.020388,-0.555634 2.556232,-1.421706 0.535843,-0.866073 0.587296,-2.011413 0.131268,-2.922044 l -5,-10 C 82.1911,79.665547 81.108107,78.998121 80,79 l -60,0 c -1.127032,0 -2.260256,0.801763 -2.6875,1.65625 z M 21.875,85 l 56.25,0 2,4 -60.25,0 z" transform="translate(0,952.36218)"></path></g></svg>