<svg xmlns="http://www.w3.org/2000/svg" xmlns:xlink="http://www.w3.org/1999/xlink" version="1.1" x="0px" y="0px" viewBox="0 0 100 125" enable-background="new 0 0 100 100" xml:space="preserve"><path d="M94.805,16.23c-1.066-0.752-2.428-0.936-3.652-0.498l-16.969,6.061C72.391,10.318,62.469,1.5,50.5,1.5  c-10.781,0-19.918,7.145-22.939,16.945L7.152,25.732C5.563,26.301,4.5,27.809,4.5,29.5v66c0,1.301,0.633,2.52,1.695,3.27  C6.879,99.252,7.684,99.5,8.5,99.5c0.453,0,0.906-0.076,1.344-0.232l26.656-9.52l26.652,9.52c0.871,0.309,1.82,0.309,2.691,0l28-10  c1.594-0.568,2.656-2.076,2.656-3.768v-66C96.5,18.199,95.867,16.98,94.805,16.23z M32.5,82.68l-20,7.145V32.318l14.074-5.027  c0.441,5.604,2.863,11.299,5.926,16.432V82.68z M60.5,89.824l-20-7.145V54.754c3.797,4.463,6.969,7.395,7.301,7.697  c0.762,0.699,1.73,1.049,2.699,1.049c0.967,0,1.934-0.35,2.699-1.049c0.332-0.303,3.502-3.234,7.301-7.697V89.824z M50.5,53.898  c-6.113-6.33-16-18.631-16-28.398c0-8.822,7.176-16,16-16c8.82,0,16,7.178,16,16C66.5,35.268,56.609,47.568,50.5,53.898z   M88.5,82.682l-20,7.143V43.723c2.504-4.199,4.586-8.773,5.498-13.367l14.502-5.18V82.682z M50.5,19.5c-3.309,0-6,2.691-6,6  s2.691,6,6,6s6-2.691,6-6S53.809,19.5,50.5,19.5z"/><text x="0" y="115" fill="#000000" font-size="5px" font-weight="bold" font-family="'Helvetica Neue', Helvetica, Arial-Unicode, Arial, Sans-serif">Created by Sergey Demushkin</text><text x="0" y="120" fill="#000000" font-size="5px" font-weight="bold" font-family="'Helvetica Neue', Helvetica, Arial-Unicode, Arial, Sans-serif">from the Noun Project</text></svg>