<svg xmlns="http://www.w3.org/2000/svg" xmlns:xlink="http://www.w3.org/1999/xlink" version="1.1" x="0px" y="0px" viewBox="0 0 100 100" enable-background="new 0 0 100 100" xml:space="preserve"><g><path fill="#000000" d="M47.486,36.649c-0.498-0.288-1.135-0.117-1.423,0.381l-7.818,13.537H22.613   c-0.575,0-1.041,0.465-1.041,1.041c0,0.574,0.466,1.041,1.041,1.041h16.232c0.124,0,0.244-0.029,0.358-0.072   c0.028-0.011,0.056-0.021,0.082-0.033c0.107-0.05,0.208-0.112,0.294-0.198c0.003-0.003,0.006-0.009,0.009-0.012   c0.06-0.062,0.115-0.129,0.158-0.205l8.119-14.058C48.154,37.573,47.983,36.937,47.486,36.649z"></path><circle fill="#000000" cx="13.41" cy="12.43" r="7.43"></circle><path fill="#000000" d="M31.816,54.532c-0.149,0-0.289,0.03-0.435,0.044H18.051V39.162l7.824,7.824c1.812,1.813,4.75,1.813,6.563,0   c1.813-1.813,1.813-4.752,0-6.563L16.692,24.675c-0.012-0.012-0.026-0.019-0.037-0.03c-0.207-0.202-0.43-0.387-0.67-0.547   c-0.119-0.079-0.248-0.135-0.372-0.201c-0.142-0.077-0.278-0.163-0.427-0.226c-0.157-0.064-0.321-0.103-0.482-0.149   c-0.129-0.037-0.252-0.088-0.385-0.114c-0.6-0.119-1.219-0.119-1.819,0c-0.133,0.026-0.257,0.077-0.386,0.114   c-0.161,0.048-0.324,0.085-0.48,0.149c-0.151,0.063-0.289,0.149-0.431,0.227c-0.123,0.067-0.25,0.121-0.367,0.2   c-0.253,0.169-0.49,0.36-0.705,0.575c-0.001,0-0.002,0.001-0.003,0.002c-0.215,0.216-0.408,0.453-0.578,0.708   c-0.077,0.115-0.13,0.239-0.195,0.359c-0.08,0.146-0.167,0.285-0.231,0.439c-0.064,0.153-0.101,0.314-0.147,0.474   c-0.038,0.131-0.089,0.257-0.116,0.393c-0.06,0.299-0.092,0.604-0.092,0.907c0,0.001,0,0.001,0,0.002v31.187   c0,0.012,0.004,0.024,0.004,0.037c0,0.012-0.004,0.024-0.004,0.037c0,2.563,2.079,4.64,4.642,4.64l13.765,0.001v26.501   c0,2.563,2.078,4.641,4.641,4.641s4.642-2.078,4.642-4.641V59.174C36.458,56.61,34.38,54.532,31.816,54.532z"></path></g><circle fill="#000000" cx="86.59" cy="12.43" r="7.43"></circle><path fill="#000000" d="M68.184,54.532c0.15,0,0.289,0.03,0.436,0.044h13.33V39.162l-7.824,7.824c-1.813,1.813-4.75,1.813-6.563,0  c-1.814-1.813-1.814-4.752,0-6.563l15.744-15.748c0.014-0.012,0.027-0.019,0.037-0.03c0.207-0.202,0.43-0.387,0.67-0.547  c0.119-0.079,0.248-0.135,0.373-0.201c0.141-0.077,0.277-0.163,0.426-0.226c0.158-0.064,0.322-0.103,0.482-0.149  c0.129-0.037,0.252-0.088,0.385-0.114c0.602-0.119,1.219-0.119,1.82,0c0.133,0.026,0.256,0.077,0.385,0.114  c0.162,0.048,0.324,0.085,0.48,0.149c0.152,0.063,0.289,0.149,0.432,0.227c0.123,0.067,0.25,0.121,0.367,0.2  c0.254,0.169,0.49,0.36,0.705,0.575c0,0,0.002,0.001,0.002,0.002c0.215,0.216,0.408,0.453,0.578,0.708  c0.078,0.115,0.131,0.239,0.195,0.359c0.08,0.146,0.168,0.285,0.23,0.439c0.064,0.153,0.102,0.314,0.148,0.474  c0.037,0.131,0.09,0.257,0.115,0.393c0.061,0.299,0.092,0.604,0.092,0.907c0,0.001,0,0.001,0,0.002v31.187  c0,0.012-0.004,0.024-0.004,0.037c0,0.012,0.004,0.024,0.004,0.037c0,2.563-2.078,4.64-4.641,4.64l-13.766,0.001v26.501  c0,2.563-2.076,4.641-4.641,4.641c-2.563,0-4.641-2.078-4.641-4.641V59.174C63.543,56.61,65.621,54.532,68.184,54.532z"></path></svg>