<svg xmlns:dc="http://purl.org/dc/elements/1.1/" xmlns:cc="http://creativecommons.org/ns#" xmlns:rdf="http://www.w3.org/1999/02/22-rdf-syntax-ns#" xmlns:svg="http://www.w3.org/2000/svg" xmlns="http://www.w3.org/2000/svg" xmlns:sodipodi="http://sodipodi.sourceforge.net/DTD/sodipodi-0.dtd" xmlns:inkscape="http://www.inkscape.org/namespaces/inkscape" version="1.1" x="0px" y="0px" viewBox="0 0 100 125"><g transform="translate(0,-952.36218)"><path style="font-size:medium;font-style:normal;font-variant:normal;font-weight:normal;font-stretch:normal;text-indent:0;text-align:start;text-decoration:none;line-height:normal;letter-spacing:normal;word-spacing:normal;text-transform:none;direction:ltr;block-progression:tb;writing-mode:lr-tb;text-anchor:start;baseline-shift:baseline;opacity:1;color:#000000;fill:#000000;fill-opacity:1;stroke:none;stroke-width:6;marker:none;visibility:visible;display:inline;overflow:visible;enable-background:accumulate;font-family:Sans;-inkscape-font-specification:Sans" d="M 37.6875 5 A 3.0003 3.0003 0 0 0 35.1875 7 L 32.34375 15 L 18 15 A 3.0003 3.0003 0 0 0 17.6875 15 A 3.0003 3.0003 0 0 0 15 18 L 15 92 A 3.0003 3.0003 0 0 0 18 95 L 82 95 A 3.0003 3.0003 0 0 0 85 92 L 85 18 A 3.0003 3.0003 0 0 0 82 15 L 67.65625 15 L 64.8125 7 A 3.0003 3.0003 0 0 0 62 5 L 38 5 A 3.0003 3.0003 0 0 0 37.6875 5 z M 40.09375 11 L 59.90625 11 L 62.75 19 L 37.25 19 L 40.09375 11 z M 21 21 L 30.1875 21 A 3.0003 3.0003 0 0 0 33 25 L 67 25 A 3.0003 3.0003 0 0 0 69.8125 21 L 79 21 L 79 89 L 21 89 L 21 21 z M 26.6875 29 A 3.0003 3.0003 0 0 0 24 32 L 24 42 A 3.0003 3.0003 0 0 0 27 45 L 38 45 A 3.0003 3.0003 0 0 0 41 42 L 41 32 A 3.0003 3.0003 0 0 0 38 29 L 27 29 A 3.0003 3.0003 0 0 0 26.6875 29 z M 46.6875 34 A 3.0040663 3.0040663 0 1 0 47 40 L 73 40 A 3.0003 3.0003 0 1 0 73 34 L 47 34 A 3.0003 3.0003 0 0 0 46.6875 34 z M 30 35 L 35 35 L 35 39 L 30 39 L 30 35 z M 26.6875 49 A 3.0003 3.0003 0 0 0 24 52 L 24 62 A 3.0003 3.0003 0 0 0 27 65 L 38 65 A 3.0003 3.0003 0 0 0 41 62 L 41 52 A 3.0003 3.0003 0 0 0 38 49 L 27 49 A 3.0003 3.0003 0 0 0 26.6875 49 z M 46.6875 54 A 3.0040663 3.0040663 0 1 0 47 60 L 73 60 A 3.0003 3.0003 0 1 0 73 54 L 47 54 A 3.0003 3.0003 0 0 0 46.6875 54 z M 30 55 L 35 55 L 35 59 L 30 59 L 30 55 z M 26.6875 69 A 3.0003 3.0003 0 0 0 24 72 L 24 82 A 3.0003 3.0003 0 0 0 27 85 L 38 85 A 3.0003 3.0003 0 0 0 41 82 L 41 72 A 3.0003 3.0003 0 0 0 38 69 L 27 69 A 3.0003 3.0003 0 0 0 26.6875 69 z M 46.6875 74 A 3.0040663 3.0040663 0 1 0 47 80 L 73 80 A 3.0003 3.0003 0 1 0 73 74 L 47 74 A 3.0003 3.0003 0 0 0 46.6875 74 z M 30 75 L 35 75 L 35 79 L 30 79 L 30 75 z " transform="translate(0,952.36218)"/></g><text x="0" y="115" fill="#000000" font-size="5px" font-weight="bold" font-family="'Helvetica Neue', Helvetica, Arial-Unicode, Arial, Sans-serif">Created by hans draiman</text><text x="0" y="120" fill="#000000" font-size="5px" font-weight="bold" font-family="'Helvetica Neue', Helvetica, Arial-Unicode, Arial, Sans-serif">from the Noun Project</text></svg>