<svg xmlns="http://www.w3.org/2000/svg" xmlns:xlink="http://www.w3.org/1999/xlink" version="1.1" x="0px" y="0px" viewBox="0 0 512 512" style="enable-background:new 0 0 512 512;" xml:space="preserve"><path d="M175.2,384c0,42,0,82.9,0,124c-56.9,0-113,0-170,0c0-3,0-5.8,0-8.5c0-49.5,0-99,0-148.6  c0-29,19.2-48.2,48.2-48.2c32.4,0,64.8,0.2,97.1-0.2c8.4-0.1,15.7,1.7,21.7,7.2c18.8,17.4,37.5,35,56,52.8  c7.3,7.1,13.9,15,22.6,24.4c5.3-6,10-12.2,15.5-17.7c17-17,34.2-33.8,51.4-50.6c7-6.8,15.4-8.6,24.4-5.3c8.7,3.2,13.8,10,14.8,19.3  c0.9,8.5-3.2,15-9.1,20.8c-22.3,22.1-44.5,44.4-66.7,66.6c-5.1,5-10,10.2-15.2,15.1c-10.1,9.3-24.7,9.9-35,0.6  c-17.2-15.7-34-31.9-51-47.9C178.8,386.8,177.5,385.8,175.2,384z"></path><path d="M227.1,507.8c0-11.5,0-22.8,0-35c81.8,0,163.5,0,245.7,0c0-92.9,0-184.9,0-277.5c-69.8,0-139.6,0-210.5,0  c0,2.9,0,5.7,0,8.5c0,36.9-0.8,73.8,0.4,110.7c0.5,14.3-4.7,23.4-16.2,31c-5.8-6.2-11.9-12.4-17.6-19c-1.3-1.4-2-3.8-2.1-5.8  c-0.1-54.5-0.1-109,0-163.5c0-0.9,0.3-1.8,0.5-3.3c93.8,0,187.4,0,281.6,0c0,117.8,0,235.5,0,353.8  C415.2,507.8,321.3,507.8,227.1,507.8z"></path><path d="M97.7,152.5c36.5,0.2,65.4,29.4,65.2,66c-0.2,35.8-29.8,65-65.8,64.9c-36.6-0.1-65.7-29.7-65.5-66.5  C31.8,180.9,61.2,152.3,97.7,152.5z"></path></svg>