<svg xmlns="http://www.w3.org/2000/svg" xmlns:xlink="http://www.w3.org/1999/xlink" version="1.1" x="0px" y="0px" viewBox="0 0 100 100" style="enable-background:new 0 0 100 100;" xml:space="preserve"><g><path d="M37.8,22.3l9.3-9.2l-1-1C43,9,38.8,7.2,34.4,7.2c-4.4,0-8.6,1.7-11.7,4.8L6.1,28.3L18.8,41l9.4-9.3l54.9,55.1   c2.6,2.6,6.9,2.6,9.5,0v0c2.6-2.6,2.6-6.9,0-9.5L37.8,22.3z"></path><path d="M82.4,31.9l-9.6-9.6l11-11l-2.6-2.6l-11.8,1.5l-0.1,0.1c-4.3,4.3-6.5,10.2-6,16.3l0.4,4.7l-6.4,6.3l9.5,9.5l6.7-6.7   l4.1,0.4c6.1,0.6,12.2-1.6,16.6-5.9l0,0L96,23.5l-2.6-2.6L82.4,31.9z"></path><path d="M43.6,51.4l-8.8,8.7l-4.1-0.4c-6.1-0.6-12.2,1.6-16.6,5.9l-1.7,11.6l2.6,2.6l11-11l9.6,9.6l-11,11l2.6,2.6l11.8-1.5   l0.1-0.1c4.3-4.3,6.5-10.2,6-16.3l-0.4-4.7l8.5-8.4L43.6,51.4z"></path></g></svg>